# xmcd
#
# Track frame offsets:
#	150
#	13751
#	29267
#	48825
#	61653
#	73679
#	85567
#	99627
#	112699
#	127863
#	142195
#	156727
#	167960
#	179063
#	191330
#	205025
#	222733
#	239144
#	257993
#	269431
#
# Disc length: 3807 seconds
#
# Revision: 3
# Processed by: cddbd v1.5PL3 Copyright (c) Steve Scherf et al.
# Submitted via: dBpowerAMP V4.0
#
DISCID=2c0edd14
DTITLE=Garry Hagger - Romantic Slows
DYEAR=2000
DGENRE=Slow
TTITLE0=Lingerin' on
TTITLE1=Stay A While
TTITLE2=My Life (Ma Vie)
TTITLE3=The Summerwind
TTITLE4=No One Can Break A Heart Like You
TTITLE5=True Love
TTITLE6=You're My World
TTITLE7=Blue Spanish Eyes
TTITLE8=Love's Been Good To Me
TTITLE9=On This Night Of A Thousand Stars
TTITLE10=Give Me One More Night With You
TTITLE11=You Don't Have To Say You Love Me
TTITLE12=More Time
TTITLE13=I'll Never Fall In Love Again
TTITLE14=The Wonder Of You
TTITLE15=It Takes A Fool Like Me
TTITLE16=Morning
TTITLE17=Don't Walk Away From Love
TTITLE18=I Will
TTITLE19=This Is The Moment
EXTD=serienr 5410504074226 paradiso
EXTT0=
EXTT1=
EXTT2=
EXTT3=
EXTT4=
EXTT5=
EXTT6=
EXTT7=
EXTT8=
EXTT9=
EXTT10=
EXTT11=
EXTT12=
EXTT13=
EXTT14=
EXTT15=
EXTT16=
EXTT17=
EXTT18=
EXTT19=
PLAYORDER=
